# xmcd
#
# Track frame offsets: 
#        150
#        12044
#        26178
#        36389
#        52399
#        67437
#        80379
#        91483
#        102363
#        112539
#
# Disc length: 1797 seconds
#
# Revision: 0
# Processed by: cddbd v1.4PL0 Copyright (c) Steve Scherf et al.
# Submitted via: ExactAudioCopy v0.90a11
#
DISCID=8507030a
DTITLE=Stoney Creek Bluegrass Band - Stoney Creek Bluegrass Band
DYEAR=1900
DGENRE=
TTITLE0=Drivin' Nails In My Coffin
TTITLE1=I Wish You Knew
TTITLE2=Love Please Come Home
TTITLE3=High On A Hilltop
TTITLE4=Stokes Run
TTITLE5=Don't You Call My Name
TTITLE6=Lonesome Wind Blues
TTITLE7=Little Maggie
TTITLE8=Crying Holy Unto The Lord
TTITLE9=Remington Ride
EXTD=
EXTT0=
EXTT1=
EXTT2=
EXTT3=
EXTT4=
EXTT5=
EXTT6=
EXTT7=
EXTT8=
EXTT9=
PLAYORDER=
